# xmcd
#
# Track frame offsets: 
#        150
#        41109
#        70421
#        95790
#        116027
#        152320
#
# Disc length: 2526 seconds
#
# Revision: 1
# Processed by: cddbd v1.5.2PL0 Copyright (c) Steve Scherf et al.
# Submitted via: ExactAudioCopy v1.0b4
#
DISCID=4e09dc06
DTITLE=Buddy Guy - The Blues Giant  (LP)
DYEAR=1979
DGENRE=Blues
TTITLE0=I smell a rat
TTITLE1=Are you losing your mind
TTITLE2=You have been gone too long
TTITLE3=She's out there somewhere
TTITLE4=Outskirts of town
TTITLE5=When I left home
EXTD=
EXTT0=
EXTT1=
EXTT2=
EXTT3=
EXTT4=
EXTT5=
PLAYORDER=
